<svg width="76" height="64" viewBox="0 0 76 64" fill="none" xmlns="http://www.w3.org/2000/svg">
<path d="M67.1429 38.1408V36.1408H65.1429H54.2857C49.6863 36.1408 45.4286 31.6428 45.4286 25.4273V12.7138C45.4286 6.49829 49.6863 2.00024 54.2857 2.00024H65.1429C69.7422 2.00024 74 6.49829 74 12.7138V19.0705V25.4273V39.73C74 52.1036 65.5012 61.5679 55.6429 61.5679H54.2857C52.6721 61.5679 50.8571 59.9304 50.8571 57.2111C50.8571 54.4919 52.6721 52.8543 54.2857 52.8543H55.6429C62.2738 52.8543 67.1429 46.6651 67.1429 39.73V38.1408ZM23.7143 38.1408V36.1408H21.7143H10.8571C6.25777 36.1408 2 31.6428 2 25.4273V12.7138C2 6.49829 6.25777 2.00024 10.8571 2.00024H21.7143C26.3137 2.00024 30.5714 6.49829 30.5714 12.7138V19.0705V25.4273V39.73C30.5714 52.1036 22.0726 61.5679 12.2143 61.5679H10.8571C9.24349 61.5679 7.42857 59.9304 7.42857 57.2111C7.42857 54.4919 9.24349 52.8543 10.8571 52.8543H12.2143C18.8453 52.8543 23.7143 46.6651 23.7143 39.73V38.1408Z" stroke="#08B6CB" stroke-width="4"/>
</svg>
