<svg width="41" height="41" viewBox="0 0 41 41" fill="none" xmlns="http://www.w3.org/2000/svg">
<g clip-path="url(#clip0_223_239)">
<path d="M0.403238 41.0004C0.00530468 40.7682 -0.0449719 40.4067 0.0277687 39.998C0.266315 38.648 1.07502 37.8232 2.40574 37.4391C2.40574 36.809 2.40574 36.1704 2.40574 35.5307C2.40574 34.3432 2.4036 33.1547 2.40681 31.9673C2.40788 31.5073 2.64429 31.228 3.01227 31.2323C3.37918 31.2366 3.60382 31.5137 3.60489 31.9812C3.6081 32.9675 3.60489 33.9527 3.60489 34.9669H9.5878V25.1764C8.38758 24.8511 7.59172 24.0873 7.26225 22.8421H3.60489V23.254C3.60489 25.2159 3.60489 27.1779 3.60489 29.1399C3.60489 29.2468 3.61131 29.3538 3.60061 29.4597C3.56424 29.7999 3.30644 30.0449 2.98981 30.0245C2.65071 30.0021 2.45495 29.8063 2.41002 29.4715C2.39398 29.3538 2.4036 29.2319 2.4036 29.112C2.4036 27.1105 2.40039 25.1079 2.40788 23.1064C2.40788 22.8614 2.36189 22.7105 2.1212 22.5725C0.887819 21.8643 0.897446 20.1752 2.13404 19.4627C2.33728 19.3461 2.4389 19.2316 2.40574 19.0016C2.39505 18.9235 2.39826 18.8412 2.40574 18.762C2.44425 18.2753 2.40574 17.8944 1.88372 17.5842C1.23762 17.2002 1.05576 16.3304 1.30501 15.6201C1.55104 14.9173 2.21961 14.4252 2.98767 14.4198C4.44248 14.4091 5.89729 14.422 7.35103 14.4102C7.55535 14.4081 7.77678 14.3621 7.96077 14.2754C11.831 12.4547 15.6959 10.6221 19.565 8.80139C19.8186 8.68264 19.9073 8.53609 19.9063 8.25474C19.8956 5.79961 19.8988 3.34342 19.9009 0.888301C19.9009 0.162997 20.0667 0.00253158 20.8016 0.00253158C22.8704 0.00253158 24.9382 0.00146181 27.007 0.00253158C28.2597 0.00253158 28.9871 0.736394 28.9881 1.99765C28.9892 3.47928 28.9903 4.96091 28.9881 6.44148C28.986 7.66957 28.2479 8.40664 27.0188 8.40878C25.9245 8.41092 24.8302 8.41199 23.7358 8.40878C23.1956 8.40664 22.9881 8.19804 22.9849 7.6578C22.9817 7.12613 22.9849 6.59338 22.9849 6.03496H21.1065C21.1065 6.85976 21.0926 7.67064 21.1225 8.48046C21.1268 8.59171 21.3301 8.73078 21.4702 8.79818C23.4181 9.72888 25.3704 10.6478 27.3215 11.571C29.2245 12.4707 31.1254 13.3747 33.0338 14.2647C33.2306 14.3567 33.4638 14.4081 33.681 14.4102C35.0556 14.423 36.4301 14.4155 37.8047 14.4166C38.7985 14.4166 39.4863 14.8884 39.7259 15.726C39.9645 16.5636 39.6286 17.3114 38.7739 17.8399C38.7621 17.8474 38.7482 17.8495 38.7375 17.857C38.499 18.0196 38.5439 19.2627 38.7931 19.4114C40.1431 20.218 40.1378 21.8183 38.7974 22.6463C38.6819 22.717 38.607 22.9427 38.6059 23.0967C38.5952 26.9671 38.5974 30.8376 38.5974 34.7069V37.4445C39.5045 37.6777 40.2105 38.1687 40.6405 38.9956C40.7978 39.2973 40.8823 39.6375 41 39.9606V41.0015C27.4681 41.0015 13.9351 41.0015 0.403238 41.0015V41.0004ZM25.3853 37.3888C25.3853 37.2091 25.3853 37.0647 25.3853 36.9214C25.3853 35.2664 25.3832 33.6115 25.3864 31.9576C25.3864 31.5169 25.6078 31.2484 25.963 31.2345C26.3331 31.2195 26.5834 31.4998 26.5845 31.9523C26.5877 33.62 26.5856 35.2878 26.5856 36.9567C26.5856 37.0968 26.5856 37.238 26.5856 37.3771H30.1638V25.2555H26.5995C26.5931 25.3368 26.5856 25.3892 26.5856 25.4417C26.5856 26.7489 26.5888 28.0572 26.5813 29.3645C26.5791 29.7657 26.3299 30.0267 25.9844 30.0278C25.6399 30.0278 25.395 29.7667 25.3853 29.3666C25.3768 29.02 25.3832 28.6724 25.3832 28.3258C25.3832 27.2742 25.3832 26.2226 25.3832 25.3186C24.8141 24.9528 24.2707 24.7153 23.8824 24.3227C23.4855 23.9226 23.2427 23.3717 22.9015 22.8389H17.9626C17.6342 24.082 16.8426 24.849 15.6349 25.1753V37.3707H16.8159V36.9117C16.8159 33.696 16.8159 30.4792 16.8159 27.2635C16.8159 26.6131 16.9999 26.4258 17.6417 26.4258C19.5361 26.4258 21.4317 26.4258 23.3261 26.4258C24.0033 26.4258 24.1819 26.6034 24.1819 27.2742C24.1819 30.4899 24.1819 33.7067 24.1819 36.9224V37.3878H25.3832L25.3853 37.3888ZM8.42823 19.191H32.5738V15.6372H8.42823V19.191ZM30.4098 14.3984C30.3146 14.3278 30.2953 14.3075 30.2718 14.2968C27.0958 12.7927 23.9209 11.2854 20.7374 9.79627C20.592 9.72781 20.3491 9.76204 20.193 9.83586C17.0833 11.294 13.9801 12.766 10.8747 14.2347C10.7998 14.2701 10.7292 14.3171 10.5837 14.3995H30.4087L30.4098 14.3984ZM39.666 39.7766C39.6275 39.6749 39.6125 39.6108 39.5815 39.5562C39.1943 38.8726 38.5942 38.5945 37.8229 38.5945C26.2711 38.5988 14.7192 38.5977 3.16845 38.5977C3.06148 38.5977 2.95451 38.5977 2.8486 38.6062C2.14259 38.6704 1.54462 39.139 1.37454 39.7755H39.6671L39.666 39.7766ZM10.8308 37.3685H14.3855V25.247H10.8308V37.3685ZM20.5427 20.4212C14.8048 20.4212 9.06792 20.4212 3.32998 20.4212C3.19626 20.4212 3.06041 20.4084 2.93097 20.4319C2.61755 20.4865 2.42286 20.6801 2.41323 21.001C2.4036 21.3412 2.59936 21.5477 2.92883 21.6119C3.04436 21.6343 3.16845 21.6226 3.28826 21.6226C14.7631 21.6226 26.2379 21.6226 37.7127 21.6226C37.8325 21.6226 37.9556 21.6343 38.0722 21.6119C38.4027 21.5488 38.5984 21.3423 38.5899 21.0021C38.5813 20.6823 38.3877 20.4876 38.0743 20.4319C37.9449 20.4084 37.8079 20.4212 37.6753 20.4212C31.9641 20.4212 26.254 20.4212 20.5427 20.4212ZM31.4207 25.1881V34.9744H37.3726V22.8368H33.7601C33.2253 24.2574 32.8434 24.6393 31.4207 25.1871V25.1881ZM18.0375 37.3685H22.9528V31.2526H18.0375V37.3685ZM27.7879 4.8197C27.7879 3.90719 27.789 2.96258 27.7879 2.01798C27.7879 1.39644 27.5964 1.20281 26.9814 1.20281C25.1564 1.20174 23.3304 1.20281 21.5055 1.20281C21.3793 1.20281 21.253 1.20281 21.1268 1.20281V4.82077H27.7879V4.8197ZM22.9635 30.0139V27.6497H18.046V30.0139H22.9635ZM8.56302 22.8346C8.78552 23.5129 9.36851 23.9975 10.0713 24.0082C11.7657 24.0338 13.4612 24.0349 15.1557 24.0082C15.8884 23.9964 16.5335 23.4423 16.6351 22.8346H8.56302ZM24.3584 22.8453C24.5092 23.4786 25.135 23.9996 25.8624 24.0103C27.544 24.0349 29.2256 24.0338 30.9061 24.0103C31.6335 24.0007 32.2443 23.4979 32.4219 22.8453H24.3584ZM9.58887 37.3792V36.2207H3.63484V37.3792H9.58887ZM37.3736 37.3792V36.2207H31.4196V37.3792H37.3736ZM7.19378 15.6158C5.82027 15.6158 4.49062 15.6148 3.16096 15.6158C2.69136 15.6158 2.41751 15.833 2.40788 16.1999C2.39719 16.5808 2.6828 16.815 3.16952 16.8161C4.40718 16.8182 5.64377 16.8172 6.88143 16.8161C6.98305 16.8161 7.08467 16.8001 7.19378 16.7904V15.6158ZM33.8093 16.8172C35.1829 16.8172 36.5125 16.8182 37.8411 16.8172C38.3086 16.8172 38.5845 16.5979 38.5942 16.2331C38.6049 15.8533 38.3193 15.619 37.8315 15.618C36.5949 15.6158 35.3572 15.6169 34.1206 15.618C34.019 15.618 33.9174 15.634 33.8093 15.6436V16.8182V16.8172ZM3.63484 18.0356V19.1878H7.18737V18.0356H3.63484ZM33.8232 18.0346V19.1867H37.3736V18.0346H33.8232ZM24.2022 7.20529C25.227 7.20529 26.2219 7.21492 27.2156 7.19994C27.5537 7.19459 27.7997 6.91324 27.7815 6.59873C27.7622 6.26175 27.5697 6.02641 27.237 6.01999C26.2315 5.99859 25.2249 6.0125 24.2022 6.0125V7.20636V7.20529Z" fill="#FCFCFC"/>
<path d="M4.80731 29.9889C4.80731 29.0293 4.80303 28.0697 4.80838 27.1101C4.81372 26.0307 5.59248 25.222 6.61405 25.2252C7.6367 25.2273 8.40689 26.0339 8.40903 27.1197C8.41331 29.0785 8.41117 31.0372 8.40903 32.996C8.40903 33.5897 8.21007 33.7887 7.62172 33.7908C6.94245 33.793 6.26212 33.793 5.58285 33.7908C5.01376 33.7887 4.80838 33.5876 4.80624 33.0259C4.80303 32.0129 4.80624 31.0009 4.80624 29.9878L4.80731 29.9889ZM7.20774 32.5766C7.20774 30.7013 7.21309 28.8656 7.20346 27.0299C7.20133 26.6651 6.9232 26.419 6.59159 26.4287C6.27495 26.4383 6.04176 26.6779 6.0118 27.0245C6.00752 27.0769 6.00966 27.1304 6.00966 27.1839C6.00966 28.8881 6.00966 30.5922 6.00966 32.2963C6.00966 32.3851 6.0225 32.4739 6.02999 32.5766H7.20774Z" fill="#FCFCFC"/>
<path d="M36.1949 30.0263C36.1949 31.0255 36.197 32.0246 36.1949 33.0249C36.1927 33.5876 35.9874 33.7897 35.4204 33.7919C34.7144 33.7951 34.0084 33.7972 33.3013 33.7919C32.8135 33.7876 32.5953 33.5704 32.5942 33.0794C32.5899 31.0672 32.5857 29.0549 32.5953 27.0427C32.6006 26.0211 33.3965 25.2284 34.386 25.2252C35.3798 25.222 36.1788 26.0093 36.1917 27.0277C36.2045 28.0269 36.1949 29.0261 36.1949 30.0263ZM33.7934 32.5713H34.9808C34.9861 32.475 34.9936 32.399 34.9936 32.322C34.9936 30.605 34.9957 28.887 34.9936 27.17C34.9936 26.7068 34.7636 26.4297 34.3967 26.4287C34.0287 26.4265 33.7966 26.7047 33.7944 27.1647C33.7912 28.1103 33.7934 29.0549 33.7934 30.0006C33.7934 30.85 33.7934 31.6983 33.7934 32.5723V32.5713Z" fill="#FCFCFC"/>
</g>
<defs>
<clipPath id="clip0_223_239">
<rect width="41" height="41" fill="white"/>
</clipPath>
</defs>
</svg>
