<svg width="53" height="34" viewBox="0 0 53 34" fill="none" xmlns="http://www.w3.org/2000/svg">
<g clip-path="url(#clip0_223_231)">
<path d="M18.9491 0.522308C19.3912 0.806173 19.4479 0.982606 19.2543 1.47959C19.0221 2.07789 18.7889 2.67619 18.5503 3.28759C18.7268 3.34349 18.8744 3.38978 19.0212 3.43782C20.5039 3.91908 21.4402 5.15673 21.4438 6.66689C21.4492 8.81378 21.4438 10.9607 21.442 13.1076C21.442 13.5565 21.2368 13.8019 20.8704 13.8037C20.5039 13.8046 20.2951 13.5582 20.2951 13.1128C20.2951 11.0096 20.2969 8.90636 20.2969 6.80314C20.2969 5.58645 19.6775 4.78377 18.4801 4.44488C18.2217 4.37151 17.9615 4.30426 17.7049 4.22565C17.2665 4.09202 17.1179 3.81165 17.2755 3.39415C17.4907 2.8238 17.7175 2.25869 17.9597 1.6403C17.7977 1.6403 17.6806 1.6403 17.5636 1.6403C15.1931 1.63943 12.8226 1.63418 10.4521 1.63855C8.13388 1.64292 6.46653 2.65348 5.48341 4.69905C5.35557 4.96457 5.17371 5.09384 4.86941 5.12528C4.02313 5.21001 3.55588 5.71223 3.55318 6.53675C3.54507 8.72731 3.54778 10.917 3.54147 13.1076C3.54057 13.5836 3.69272 13.9696 4.18699 14.257C4.18699 13.9548 4.18428 13.7085 4.18699 13.463C4.20229 12.3416 4.13297 11.2113 4.25631 10.1012C4.46698 8.20238 6.15773 6.7682 8.12308 6.74986C10.6169 6.72628 13.1116 6.72715 15.6045 6.75248C17.7967 6.77519 19.5334 8.46353 19.5622 10.5868C19.5847 12.2324 19.5874 13.8779 19.5523 15.5226C19.4785 18.9997 16.557 22.1275 12.9973 22.5554C12.4544 22.621 11.898 22.6419 11.3515 22.6131C10.8177 22.5851 10.2883 22.469 9.75261 22.3904C9.62747 22.7659 9.48973 23.1634 9.36728 23.5643C9.35018 23.6193 9.38799 23.711 9.43211 23.759C10.2307 24.6281 11.0337 25.4928 11.862 26.3872C12.2104 26.002 12.5318 25.6282 12.8748 25.2736C13.189 24.9486 13.6824 25.0316 13.8337 25.4282C13.8733 25.5321 13.8994 25.6893 13.8472 25.7705C13.6869 26.0186 13.8228 26.1627 13.9795 26.3313C14.3603 26.7427 14.7312 27.1637 15.1499 27.6301C15.347 26.7601 15.5361 25.9496 15.7054 25.1356C15.7198 25.0657 15.618 24.9591 15.5496 24.8884C15.2435 24.5731 14.9041 24.2848 14.6259 23.9486C14.3648 23.6324 14.4332 23.2795 14.7258 23.0935C15.0067 22.9153 15.3335 22.9965 15.5631 23.3197C16.0745 24.0412 16.7821 24.3765 17.677 24.3923C20.8641 24.4482 23.4164 26.885 23.5109 29.9813C23.5451 31.1028 23.5217 32.2261 23.5163 33.3484C23.5145 33.7537 23.2705 34.0087 22.9239 34C22.5836 33.9913 22.372 33.7528 22.3702 33.3537C22.3666 32.3291 22.372 31.3046 22.3702 30.2809C22.3648 27.5576 20.3374 25.5609 17.5258 25.5007C17.3034 25.4963 17.081 25.4648 16.8307 25.4439C16.6372 26.2867 16.4454 27.1226 16.2536 27.9594C16.1834 28.2677 16.1141 28.576 16.0448 28.8843C15.9908 29.1245 15.871 29.3071 15.6063 29.3682C15.347 29.4285 15.149 29.3376 14.9806 29.1481C14.3495 28.4389 13.7148 27.7323 13.081 27.0248C13.0459 26.9855 13.0036 26.9532 12.9568 26.9104C12.6264 27.182 12.4175 27.4589 12.4373 27.9122C12.4769 28.8258 12.4499 29.742 12.4445 30.6574C12.4418 31.0496 12.2824 31.2714 11.9862 31.3247C11.5874 31.3972 11.2984 31.1439 11.2948 30.6914C11.2876 29.7761 11.2624 28.859 11.3083 27.9463C11.3317 27.4772 11.1139 27.1969 10.7672 26.9069C10.2127 27.5235 9.66888 28.1279 9.12511 28.7332C9.01437 28.8564 8.89913 28.976 8.7947 29.1044C8.61914 29.3193 8.40577 29.4328 8.11858 29.3595C7.84128 29.2887 7.74045 29.0835 7.68463 28.8328C7.48567 27.9288 7.2795 27.0257 7.07423 26.1225C7.02382 25.9016 6.9689 25.6806 6.91938 25.4718C4.71006 25.4028 2.93918 26.1024 1.87503 28.0729C1.51311 28.7428 1.37086 29.466 1.36816 30.2172C1.36456 31.2417 1.36816 32.2662 1.36456 33.2899C1.36366 33.7301 1.14489 33.9904 0.791071 33.9878C0.438156 33.9851 0.213082 33.7196 0.216683 33.2829C0.228387 32.0199 0.178871 30.7508 0.278803 29.494C0.499376 26.6973 3.08502 24.4106 5.98037 24.3879C6.81585 24.3818 7.52168 24.1302 8.05195 23.4874C8.37066 23.1022 8.53091 22.6568 8.56602 22.1642C8.57773 21.9938 8.53361 21.8951 8.36436 21.8052C5.88314 20.4924 4.48948 18.4722 4.2185 15.7383C4.19689 15.5235 4.12216 15.4344 3.9124 15.3523C2.94008 14.9723 2.4053 14.2552 2.3972 13.2403C2.37829 10.9738 2.38099 8.70722 2.4053 6.44067C2.41791 5.26154 3.14894 4.39946 4.30492 4.06756C4.43367 4.03088 4.57321 3.91908 4.63893 3.80466C5.68868 1.96434 7.2768 0.883035 9.424 0.576461C9.47622 0.5686 9.52574 0.54065 9.57615 0.522308C12.6993 0.522308 15.8233 0.522308 18.9464 0.522308H18.9491ZM11.8899 7.85824V7.85475C10.6763 7.85475 9.46362 7.84427 8.25002 7.85737C6.74923 7.87309 5.58965 8.85308 5.37898 10.2916C5.32226 10.6768 5.33756 11.0742 5.34026 11.4655C5.35197 12.9468 5.27814 14.4352 5.40869 15.9069C5.72829 19.5081 9.4069 22.117 13.0639 21.4156C16.2383 20.8068 18.399 18.2774 18.4171 15.14C18.4252 13.7015 18.4225 12.263 18.4207 10.8253C18.4189 9.03126 17.2125 7.86174 15.3605 7.85824C14.2037 7.85562 13.0468 7.85824 11.889 7.85824H11.8899ZM10.0083 26.0527C9.53564 25.5426 9.08099 25.0526 8.62634 24.5617C8.44448 24.6936 8.28333 24.7949 8.14468 24.9198C8.08346 24.9748 8.02494 25.0875 8.04025 25.1583C8.21221 25.961 8.39947 26.7601 8.59663 27.624C9.09179 27.072 9.54464 26.568 10.0083 26.0518V26.0527Z" fill="#FCFCFC"/>
<path d="M42.814 0C43.3704 0.120533 43.9403 0.199142 44.4804 0.36684C47.6603 1.35382 49.812 4.16975 49.8759 7.41193C49.8966 8.47926 49.8786 9.54746 49.884 10.6148C49.8903 11.8769 50.2369 13.0473 50.95 14.1024C51.9601 15.596 52.4697 17.2232 52.3805 19.0128C52.3067 20.4819 51.8404 21.8288 50.9941 23.0498C50.7753 23.3651 50.4341 23.4464 50.155 23.2638C49.8723 23.0795 49.8273 22.7651 50.0407 22.4305C51.6936 19.8347 51.6495 17.2564 49.9659 14.6893C49.1638 13.4665 48.7506 12.1267 48.7343 10.6751C48.7199 9.40072 48.7659 8.12202 48.6722 6.8538C48.4589 3.96887 45.9146 1.43592 42.9436 1.18612C41.1232 1.03327 39.2758 0.947671 37.4671 1.24376C34.3269 1.75821 32.1005 4.37326 32.0492 7.47569C32.033 8.46703 32.0375 9.45837 32.0474 10.4506C32.0627 12.0437 31.6053 13.4945 30.7212 14.8335C28.6569 17.963 29.324 21.7571 32.3256 24.0665C32.4813 24.1861 32.6074 24.2054 32.8072 24.1661C33.441 24.0412 34.082 23.9101 34.7257 23.8717C35.9709 23.7983 36.972 22.9109 37.0809 21.7187C37.1007 21.5038 37.0566 21.3737 36.836 21.254C34.173 19.8129 32.7766 17.611 32.7073 14.6465C32.6776 13.394 32.701 12.1407 32.7028 10.8873C32.7028 10.4314 32.899 10.1929 33.2682 10.1903C33.6382 10.1877 33.8498 10.4314 33.8498 10.8768C33.8516 12.1084 33.848 13.339 33.8516 14.5706C33.8624 18.363 37.0044 21.2182 40.9063 20.9815C43.9061 20.7999 46.5592 18.4102 46.8455 15.4929C46.9797 14.1242 46.868 12.7329 46.868 11.3214C45.3609 11.1677 44.3832 10.3292 43.9106 8.85221C43.7818 8.92383 43.6693 8.98322 43.5594 9.04786C41.2592 10.4069 38.778 11.2821 36.1104 11.6472C35.69 11.7048 35.4352 11.538 35.3776 11.207C35.319 10.8698 35.5324 10.6096 35.9565 10.5484C38.8716 10.1327 41.532 9.09939 43.9511 7.4687C44.4255 7.14902 44.8334 7.37349 44.9261 7.93162C44.9945 8.34475 45.0881 8.77448 45.2799 9.14394C45.6697 9.89596 46.3603 10.2139 47.2191 10.1999C47.9439 10.1886 48.0771 10.3187 48.0771 11.0288C48.0771 12.304 48.0906 13.5783 48.0717 14.8535C48.0195 18.4591 45.1116 21.5921 41.4212 22.0445C40.4174 22.1676 39.4289 22.117 38.4494 21.8707C38.3872 21.855 38.3224 21.848 38.227 21.8305C38.1091 22.793 37.685 23.5861 36.9054 24.222C37.2655 24.4927 37.6004 24.7443 37.9362 24.9967C38.6555 25.5365 39.3803 26.0693 40.0897 26.6213C40.3049 26.789 40.4516 26.8204 40.683 26.6317C41.216 26.1977 41.7769 25.7959 42.3287 25.3854C42.6952 25.1129 43.0211 25.1233 43.2452 25.4063C43.464 25.6815 43.3848 26.002 43.0265 26.2719C42.299 26.8195 41.5716 27.3672 40.8424 27.9113C40.4903 28.1742 40.2923 28.1742 39.9376 27.9096C38.6573 26.9514 37.3771 25.9941 36.1041 25.0273C35.9024 24.8735 35.7287 24.8325 35.4658 24.8823C35.0066 24.9696 34.5286 24.9626 34.0631 25.0255C31.6449 25.3513 29.9173 27.2554 29.893 29.6241C29.8822 30.7028 29.8948 31.7815 29.8876 32.8602C29.8849 33.2751 29.5644 33.5484 29.1988 33.4593C28.9305 33.3938 28.7478 33.213 28.7514 32.9501C28.7703 31.5029 28.7055 30.0451 28.8684 28.6118C29.0521 26.9951 30.0154 25.7592 31.4685 24.7687C31.3613 24.7023 31.2623 24.6569 31.1831 24.5897C28.1401 22.0008 27.4838 17.6931 29.6589 14.388C30.5079 13.0988 30.9346 11.7223 30.9049 10.1912C30.8824 9.04873 30.8716 7.90017 30.9589 6.76209C31.2065 3.52778 33.9362 0.674288 37.2403 0.130141C37.4825 0.0899633 37.7228 0.0445449 37.9641 0.00087343C39.581 0.00087343 41.1989 0.00087343 42.8158 0.00087343L42.814 0Z" fill="#FCFCFC"/>
<path d="M52.0375 31.0775C52.0375 31.6548 52.042 32.2322 52.0366 32.8095C52.033 33.2165 51.8016 33.4733 51.4559 33.4716C51.1066 33.4698 50.8914 33.2226 50.8905 32.8034C50.8878 31.8016 50.8905 30.7989 50.8887 29.7971C50.8842 27.0248 48.8739 25.0386 46.0235 24.9722C44.8081 24.9443 43.8484 24.4272 43.1534 23.4577C42.9013 23.1057 42.9409 22.7607 43.2371 22.5703C43.5225 22.386 43.8466 22.4751 44.0942 22.8184C44.5957 23.5127 45.2835 23.8507 46.1523 23.8638C49.4122 23.9128 51.9871 26.4108 52.0348 29.5743C52.042 30.0757 52.0357 30.5762 52.0366 31.0775H52.0375Z" fill="#FCFCFC"/>
</g>
<defs>
<clipPath id="clip0_223_231">
<rect width="52.1739" height="34" fill="white" transform="translate(0.217407)"/>
</clipPath>
</defs>
</svg>
