<svg width="16" height="8" viewBox="0 0 16 8" fill="none" xmlns="http://www.w3.org/2000/svg">
<path d="M15.415 5.33422L12.8347 7.81251C12.7728 7.87192 12.699 7.91907 12.6178 7.95125C12.5365 7.98343 12.4494 8 12.3614 8C12.2733 8 12.1862 7.98343 12.1049 7.95125C12.0237 7.91907 11.95 7.87192 11.888 7.81251C11.7638 7.69376 11.6941 7.53311 11.6941 7.36566C11.6941 7.19821 11.7638 7.03756 11.888 6.91881V6.91881C12.7476 6.09472 12.1643 4.64334 10.9735 4.64334H0.66674C0.48991 4.64334 0.320322 4.57656 0.195284 4.4577C0.0702456 4.33883 0 4.17761 0 4.00951C0 3.8414 0.0702456 3.68019 0.195284 3.56132C0.320322 3.44245 0.48991 3.37567 0.66674 3.37567H10.9758C12.1741 3.37567 12.7577 1.91202 11.888 1.08753V1.08753C11.8255 1.02861 11.7759 0.958506 11.742 0.881268C11.7082 0.804029 11.6908 0.721183 11.6908 0.637509C11.6908 0.553836 11.7082 0.47099 11.742 0.393752C11.7759 0.316513 11.8255 0.24641 11.888 0.187487C11.95 0.128078 12.0237 0.0809246 12.1049 0.0487456C12.1862 0.0165667 12.2733 0 12.3614 0C12.4494 0 12.5365 0.0165667 12.6178 0.0487456C12.699 0.0809246 12.7728 0.128078 12.8347 0.187487L15.415 2.64676C15.7896 3.0033 16 3.48659 16 3.99049C16 4.49439 15.7896 4.97769 15.415 5.33422Z" fill="white"/>
</svg>
