<svg width="16" height="8" viewBox="0 0 16 8" fill="none" xmlns="http://www.w3.org/2000/svg">
<path d="M0.584971 5.33422L3.16525 7.81251C3.22724 7.87192 3.30098 7.91907 3.38223 7.95125C3.46348 7.98343 3.55062 8 3.63864 8C3.72666 8 3.8138 7.98343 3.89505 7.95125C3.9763 7.91907 4.05004 7.87192 4.11203 7.81251C4.23621 7.69376 4.30591 7.53311 4.30591 7.36566C4.30591 7.19821 4.23621 7.03756 4.11203 6.91881V6.91881C3.2524 6.09472 3.83571 4.64334 5.02655 4.64334H15.3333C15.5101 4.64334 15.6797 4.57656 15.8047 4.4577C15.9298 4.33883 16 4.17761 16 4.00951C16 3.8414 15.9298 3.68019 15.8047 3.56132C15.6797 3.44245 15.5101 3.37567 15.3333 3.37567H5.02424C3.82585 3.37567 3.24234 1.91202 4.11203 1.08753V1.08753C4.17452 1.02861 4.22412 0.958506 4.25797 0.881267C4.29182 0.804029 4.30925 0.721183 4.30925 0.637509C4.30925 0.553836 4.29182 0.47099 4.25797 0.393752C4.22412 0.316513 4.17452 0.24641 4.11203 0.187487C4.05004 0.128078 3.9763 0.0809248 3.89505 0.0487458C3.8138 0.0165669 3.72666 4.29512e-08 3.63864 4.29512e-08C3.55062 4.29512e-08 3.46348 0.0165669 3.38223 0.0487458C3.30098 0.0809248 3.22724 0.128078 3.16525 0.187487L0.584971 2.64676C0.210395 3.0033 3.46381e-08 3.48659 3.46381e-08 3.99049C3.46381e-08 4.49439 0.210395 4.97769 0.584971 5.33422Z" fill="white"/>
</svg>
