<svg width="61" height="35" viewBox="0 0 61 35" fill="none" xmlns="http://www.w3.org/2000/svg">
<g clip-path="url(#clip0_223_236)">
<path d="M51.7368 26.0554C50.8882 26.8079 50.1124 27.4979 49.3337 28.1844C48.7941 28.6604 48.5862 28.6622 48.0551 28.1933C47.3643 27.5835 46.6772 26.971 45.9874 26.3603C45.8919 26.2756 45.7908 26.1972 45.6198 26.0545C45.8749 27.259 46.1093 28.3716 46.3455 29.4842C46.6545 30.9409 46.9692 32.3959 47.2707 33.8544C47.3066 34.0274 47.3529 34.2663 47.2612 34.3786C47.1223 34.5498 46.8757 34.7192 46.6593 34.7397C46.3389 34.77 46.1537 34.523 46.0913 34.2279C45.9108 33.3792 45.735 32.5305 45.5555 31.6818C45.1161 29.6045 44.6766 27.5273 44.2353 25.4501C44.2221 25.3886 44.1928 25.3306 44.1578 25.2326C43.6966 25.377 43.244 25.5063 42.8027 25.6649C42.694 25.7042 42.5995 25.829 42.5409 25.936C42.2564 26.4513 41.9984 26.9799 41.7064 27.4917C41.5184 27.8215 41.5401 28.1157 41.7168 28.4447C42.6515 30.184 43.571 31.9305 44.4942 33.6761C44.5613 33.8018 44.6341 33.932 44.6624 34.0684C44.722 34.3545 44.6076 34.5774 44.3204 34.7031C44.0283 34.8315 43.7817 34.7468 43.5899 34.5248C43.4963 34.417 43.4358 34.2814 43.3687 34.1548C42.4747 32.4681 41.6053 30.7698 40.6811 29.0982C40.2473 28.3136 40.202 27.5826 40.6877 26.823C40.7917 26.6599 40.8663 26.4798 41.0128 26.1927C40.2899 26.4495 39.6378 26.6117 39.0613 26.9033C38.3667 27.2545 38.0908 27.8902 38.0908 28.6301C38.0927 30.3766 38.0908 32.1222 38.0908 33.8687C38.0908 33.9979 38.0984 34.129 38.0804 34.2565C38.0379 34.5516 37.8394 34.7245 37.537 34.7531C37.2308 34.7825 37.0021 34.6407 36.9086 34.359C36.8642 34.2271 36.8604 34.08 36.8594 33.9391C36.8566 32.1926 36.8557 30.447 36.8576 28.7006C36.8594 27.1145 37.6996 26.0269 39.2872 25.5303C40.7548 25.0721 42.2215 24.6094 43.6862 24.144C44.4659 23.8962 44.7607 23.511 44.7692 22.7345C44.7759 22.1265 44.7881 21.5176 44.7588 20.9114C44.7513 20.7491 44.6445 20.5387 44.5103 20.4433C42.9501 19.3414 41.9588 17.9105 41.5902 16.0963C41.5581 15.9376 41.4295 15.7709 41.2972 15.6586C37.4378 12.3778 38.2401 6.63287 42.8849 4.4451C43.3224 4.23916 43.5539 4.0136 43.6891 3.55269C44.3241 1.38987 46.4967 -0.0704294 48.8744 0.00267486C51.235 0.0748876 53.2649 1.6814 53.8027 3.88433C53.8376 4.02876 53.9879 4.20082 54.1315 4.26144C59.0796 6.36364 60.0615 12.2138 56.048 15.6853C55.9186 15.7968 55.8137 15.9742 55.7796 16.1364C55.4082 17.9034 54.4538 19.3209 52.9219 20.3854C52.6819 20.5521 52.593 20.7188 52.6025 20.9916C52.6233 21.5729 52.6044 22.1559 52.61 22.7372C52.6186 23.5119 52.9172 23.8989 53.6959 24.1449C55.1616 24.6085 56.6311 25.0632 58.0959 25.5321C59.7241 26.0536 60.5217 27.1154 60.5227 28.7433C60.5236 30.464 60.5246 32.1837 60.5208 33.9043C60.5208 34.0577 60.517 34.2181 60.4688 34.3626C60.3753 34.6443 60.1437 34.7834 59.8375 34.7522C59.5361 34.721 59.3338 34.548 59.2998 34.2511C59.279 34.0719 59.2894 33.8892 59.2894 33.7082C59.2894 32.0393 59.2904 30.3713 59.2894 28.7023C59.2885 27.6334 58.7924 26.979 57.7245 26.6367C57.3115 26.5039 56.8948 26.3808 56.3873 26.2248C56.5375 26.519 56.6472 26.7588 56.7785 26.9862C57.149 27.6281 57.1395 28.2593 56.7899 28.9118C55.8316 30.6984 54.8913 32.4922 53.9416 34.2823C53.711 34.7165 53.3774 34.8618 53.0306 34.6915C52.6771 34.5186 52.6091 34.195 52.8425 33.7528C53.7715 31.9956 54.6957 30.2357 55.6398 28.4866C55.8401 28.1157 55.8562 27.7948 55.6398 27.4301C55.3657 26.9683 55.1181 26.4923 54.8866 26.01C54.7741 25.7755 54.6173 25.6489 54.3564 25.5811C53.9879 25.4857 53.6307 25.3529 53.2092 25.2174C53.109 25.6658 53.007 26.1 52.9143 26.536C52.3823 29.0438 51.8521 31.5516 51.3229 34.0603C51.2152 34.573 50.9534 34.819 50.5707 34.7548C50.1615 34.6871 49.9952 34.3599 50.1067 33.833C50.6406 31.3252 51.1755 28.8182 51.7094 26.3113C51.7198 26.2623 51.7208 26.2106 51.7368 26.0563V26.0554ZM41.4721 14.1011C41.4721 13.855 41.4683 13.6883 41.4721 13.5216C41.5014 12.269 41.9417 11.1662 42.8612 10.2569C43.0134 10.1062 43.2799 9.9823 43.4906 9.98675C43.6579 9.99032 43.9301 10.1873 43.9594 10.3336C44.0009 10.5404 43.9329 10.8399 43.7864 10.9942C43.0852 11.7323 42.728 12.5837 42.7082 13.5662C42.6987 14.044 42.6855 14.5246 42.7129 15.0015C42.8405 17.3079 43.982 19.0347 46.2028 20.0011C48.4085 20.9613 50.548 20.6849 52.4522 19.2567C54.0947 18.0247 54.7363 16.3442 54.6768 14.3926C54.6503 13.5341 54.3186 13.1088 53.4426 12.8984C53.0599 12.8066 52.8454 12.5472 52.9002 12.2396C52.9588 11.9062 53.264 11.7172 53.6666 11.7644C54.7704 11.8928 55.6634 12.7005 55.8543 13.7418C55.8741 13.8479 55.9034 13.9522 55.9346 14.0859C56.0008 14.028 56.0338 14.0057 56.0584 13.9763C56.1189 13.9067 56.1813 13.8372 56.2332 13.7614C57.5005 11.9231 57.7009 9.98586 56.6576 8.02275C55.6143 6.06052 53.8546 4.99962 51.5327 4.91136C49.6446 4.83915 47.7508 4.88194 45.8598 4.90423C45.0083 4.91403 44.1871 5.10125 43.4046 5.50154C43.9405 6.62396 44.6851 7.57164 45.581 8.4168C47.0789 9.82807 48.8753 10.7508 50.9043 11.2902C51.3598 11.4114 51.5696 11.7154 51.46 12.0497C51.3513 12.3831 51.03 12.5276 50.5934 12.4135C47.9927 11.7315 45.7511 10.4905 44.0151 8.52289C43.3725 7.79452 42.8442 6.97611 42.2649 6.20049C39.5093 8.23939 39.5036 12.0212 41.473 14.1029L41.4721 14.1011ZM51.8767 24.3321C51.115 23.3889 51.4751 22.295 51.3399 21.2305C49.5652 21.8439 47.8122 21.8475 46.0356 21.2261C45.9099 22.3084 46.2548 23.4085 45.5073 24.3366C46.5874 25.2932 47.6317 26.2195 48.6901 27.1573C49.7627 26.207 50.7994 25.2878 51.8767 24.333V24.3321ZM52.4494 3.76219C52.0893 2.24484 50.2144 1.04129 48.4038 1.16967C46.7783 1.28467 45.0329 2.60768 44.9563 3.76219H52.4494Z" fill="#FCFCFC"/>
<path d="M31.677 28.122C31.6355 26.3568 30.7481 25.0132 29.1482 24.0932C28.3657 23.643 27.4708 23.5271 26.6051 23.3211C25.2897 23.0091 23.9213 22.8718 22.7532 22.106C22.0794 21.6638 21.3338 21.3179 20.6118 20.9417C20.4361 20.8499 20.3652 20.7482 20.369 20.5548C20.3812 19.854 20.3633 19.1533 20.3812 18.4526C20.386 18.3037 20.4559 18.1281 20.558 18.014C21.2147 17.2767 21.6684 16.4458 21.9046 15.5115C21.9698 15.2547 22.0076 14.9917 22.0615 14.7127C22.2788 14.7127 22.4782 14.7207 22.6767 14.7109C23.6047 14.6663 24.3002 14.2634 24.6886 13.4628C25.077 12.6622 24.9882 11.8634 24.3532 11.2286C24.0196 10.8952 23.9402 10.6019 24.0479 10.215C24.0602 10.1713 24.0772 10.1 24.0838 10.0554C24.339 8.35617 24.4202 6.65784 23.9742 4.97644C23.4573 3.02937 22.2958 1.6181 20.1658 1.06358C19.7708 0.961054 19.3616 0.908455 18.959 0.832676H17.4734C17.4177 0.848723 17.3629 0.874577 17.3052 0.879035C15.5664 1.03148 13.9126 1.50042 12.2966 2.09863C11.9781 2.21631 11.6748 2.23414 11.3365 2.20561C10.0711 2.09684 8.22643 2.53458 7.66603 4.17051C7.47042 4.74108 7.38536 5.36514 7.37119 5.9678C7.33244 7.61265 7.36174 9.25928 7.35134 10.905C7.3504 11.0575 7.29181 11.2322 7.20109 11.3588C6.27308 12.6461 6.99224 14.3534 8.61294 14.6628C8.94181 14.7261 9.28674 14.7145 9.62317 14.7376C9.64018 14.7769 9.66191 14.8063 9.66569 14.8375C9.81878 16.0669 10.3367 17.1403 11.1919 18.0764C11.2732 18.1646 11.3119 18.3135 11.3138 18.4356C11.3251 19.1355 11.31 19.8362 11.3242 20.5369C11.3289 20.7429 11.2562 20.8534 11.0681 20.9524C10.0503 21.49 9.04387 22.0445 8.02703 22.5821C7.8248 22.6891 7.60177 22.7764 7.37686 22.8272C6.31277 23.0671 5.24584 23.2989 4.17703 23.5217C1.59619 24.0584 0.00383387 25.9155 5.37967e-05 28.4037C-0.000891221 30.3276 5.37967e-05 32.2515 5.37967e-05 34.1754C5.37967e-05 34.8627 0.142751 35 0.859074 35C1.01028 35 1.13218 34.885 1.13218 34.7424V33.5335C1.13218 31.8111 1.12935 30.0878 1.13218 28.3653C1.13596 26.4468 2.35126 25.0159 4.33579 24.5862C5.36775 24.3624 6.4016 24.1449 7.42978 23.9087C7.64052 23.8605 7.76715 23.8882 7.91268 24.0468C9.0382 25.2745 10.1751 26.4932 11.3072 27.7145C11.689 28.1273 11.8525 28.1532 12.3684 27.8786C12.6226 27.7431 12.8778 27.6093 13.166 27.456C13.4713 28.1746 13.7737 28.8708 14.0581 29.5725C14.0893 29.6482 14.0421 29.7668 14.0014 29.8533C13.5242 30.8723 12.239 32.8684 11.4697 34.2297C11.2722 34.5783 11.5397 35 11.9583 35C12.1672 35 12.359 34.8895 12.4525 34.7129C13.0678 33.5575 14.5193 31.3947 14.9616 30.4372C15.0428 30.2625 15.1336 30.1787 15.349 30.1903C15.7601 30.2126 16.2638 30.0708 16.5596 30.2482C16.8525 30.4239 16.9423 30.9071 17.1096 31.2601C17.4271 31.9278 18.1009 33.7198 18.5092 34.6728C18.5942 34.8707 18.7974 35 19.0233 35H19.0554C19.4485 35 19.7178 34.6247 19.5695 34.2805C18.9873 32.929 18.1822 30.916 17.7135 29.8943C17.6492 29.7525 17.6483 29.5457 17.705 29.3995C17.9563 28.7558 18.2389 28.1237 18.5262 27.4506C18.8352 27.6183 19.0998 27.7636 19.3663 27.9053C19.8142 28.1434 20.0165 28.1122 20.3491 27.7538C21.4822 26.5324 22.6209 25.3155 23.7427 24.0843C23.9156 23.8944 24.0649 23.8578 24.3135 23.9158C25.421 24.1725 26.5399 24.391 27.6446 24.6593C29.2568 25.0516 30.4788 26.3826 30.5326 27.9508C30.594 29.7936 30.5553 31.6399 30.5496 33.504L30.5666 33.5254V34.6015C30.5666 34.8208 30.7556 34.9991 30.9881 34.9991C31.4776 34.9991 31.6874 34.8092 31.6884 34.3599C31.6903 32.2809 31.7243 30.2001 31.6751 28.122H31.677ZM23.5773 11.9953C23.8334 12.3635 23.8438 12.7522 23.6009 13.1267C23.2513 13.6678 22.6937 13.6848 22.0889 13.6286V11.5291C22.6739 11.472 23.2182 11.4792 23.5773 11.9953ZM9.60332 13.625C9.00229 13.691 8.4504 13.6643 8.09507 13.132C7.85504 12.7718 7.85787 12.393 8.09602 12.031C8.44851 11.4943 8.99945 11.4667 9.60332 11.5291V13.625ZM9.92368 7.3238C9.77153 7.45485 9.64207 7.68754 9.63451 7.87921C9.60426 8.7208 9.62127 9.56418 9.62127 10.4236C9.24327 10.4423 8.89456 10.4601 8.51182 10.4789C8.50521 10.4004 8.49103 10.3077 8.49009 10.2141C8.48914 8.76894 8.47969 7.32291 8.49671 5.87687C8.50048 5.50243 8.54585 5.11819 8.64602 4.75713C8.91062 3.80499 9.73279 3.17201 10.8375 3.28613C11.8336 3.38865 12.6727 3.09267 13.5554 2.79579C15.1033 2.27515 16.6843 1.88199 18.3466 1.89982C19.56 1.9123 20.6865 2.17351 21.5956 2.98747C22.3885 3.69801 22.7797 4.61092 22.9791 5.59872C23.2957 7.17135 23.1785 8.7422 22.894 10.3077C22.8865 10.3496 22.8591 10.3879 22.8373 10.4352H22.0709V9.81737C22.0709 9.17191 22.0738 8.52645 22.07 7.88189C22.0672 7.38888 21.7827 7.17492 21.2696 7.27477C19.7141 7.57877 18.1642 7.91844 16.6002 8.18144C14.5344 8.53002 12.5433 8.24384 10.6466 7.38888C10.4113 7.28279 10.1476 7.13123 9.92368 7.3238ZM10.8196 14.9142C10.7799 14.6405 10.7572 14.3614 10.7562 14.0851C10.7506 12.384 10.7534 10.6839 10.7534 8.98291V8.65751C11.4244 8.83492 12.0604 9.03194 12.7105 9.16924C14.4938 9.54456 16.2647 9.41173 18.0291 9.01946C18.9788 8.80817 19.9371 8.63433 20.9397 8.43373C20.9397 10.3327 20.9426 12.1879 20.9369 14.0432C20.936 14.3302 20.9142 14.6209 20.8736 14.9052C20.5419 17.2196 18.3523 18.9875 15.8329 18.9839C13.3352 18.9804 11.1531 17.2116 10.8196 14.9142ZM19.2293 20.8918C19.2293 20.947 19.1622 21.0059 19.1159 21.0549C18.0603 22.1934 17.0037 23.3301 15.9472 24.4667C15.9245 24.4908 15.8943 24.5086 15.8338 24.555C15.7251 24.4427 15.6165 24.333 15.5106 24.2189C14.5562 23.1901 13.5979 22.1649 12.6538 21.1271C12.5433 21.0059 12.4677 20.8196 12.4601 20.66C12.4355 20.1634 12.4507 19.6642 12.4507 19.1203C14.731 20.3497 16.9546 20.3604 19.2349 19.1257C19.2349 19.7337 19.2378 20.3123 19.2293 20.8918ZM12.0074 26.8444C10.9396 25.6944 9.88682 24.5604 8.80761 23.396C9.80555 22.8585 10.7723 22.3369 11.7646 21.802C12.8315 22.9512 13.8842 24.0861 14.9644 25.2504C13.9665 25.7889 12.9988 26.3095 12.0074 26.8444ZM16.9329 28.3261C16.7061 28.8604 16.2915 29.1276 15.6892 29.1276C15.2936 29.1276 15.022 28.9543 14.8746 28.6078C14.6412 28.0542 14.4087 27.4988 14.163 26.9131C14.6913 26.6305 15.1761 26.3603 15.6732 26.1116C15.7658 26.0652 15.9274 26.0617 16.019 26.1071C16.5152 26.3568 17 26.6278 17.5311 26.914C17.3298 27.39 17.1313 27.8581 16.9329 28.3261ZM21.108 25.3146C20.6903 25.7657 20.2745 26.2186 19.8473 26.6617C19.784 26.7267 19.6262 26.7998 19.5704 26.7704C18.6273 26.2774 17.6936 25.7693 16.7297 25.2495C17.8089 24.0861 18.8607 22.953 19.9305 21.8002C20.9152 22.3316 21.881 22.8513 22.8855 23.3934C22.2779 24.0504 21.6939 24.6825 21.108 25.3146Z" fill="#FCFCFC"/>
</g>
<defs>
<clipPath id="clip0_223_236">
<rect width="60.5217" height="35" fill="white"/>
</clipPath>
</defs>
</svg>
